<svg xmlns="http://www.w3.org/2000/svg" width="20" height="20" viewBox="0 0 20 20" fill="none"><g clip-path="url(#clip0_261_3224)" fill="none"><path d="M17.5001 7.5C17.5001 3.36667 14.1334 0 10.0001 0C5.86678 0 2.50011 3.36667 2.50011 7.5H0.0334473L1.56678 18.2083C1.70845 19.225 2.60011 20 3.62511 20H16.3501C17.3834 20 18.2668 19.2333 18.4168 18.2083L19.9501 7.5H17.5001ZM10.0001 0.833333C13.6751 0.833333 16.6668 3.825 16.6668 7.5H3.33345C3.33345 3.825 6.32511 0.833333 10.0001 0.833333ZM17.5918 18.0917C17.5084 18.7 16.9751 19.1667 16.3501 19.1667H3.62511C3.00845 19.1667 2.47511 18.7083 2.39178 18.0917L0.991781 8.33333H18.9834L17.5918 18.0917Z" fill="black"></path></g><defs><clipPath id="clip0_261_3224"><rect width="20" height="20" fill="white"></rect></clipPath></defs></svg>