<?xml version="1.0" encoding="UTF-8"?>
<svg id="Layer_2" data-name="Layer 2" xmlns="http://www.w3.org/2000/svg" viewBox="0 0 300 76.65">
  <defs>
    <style>
      .cls-1 {
        fill: #010101;
        stroke-width: 0px;
      }
    </style>
  </defs>
  <g id="Layer_1-2" data-name="Layer 1">
    <g>
      <path class="cls-1" d="M242.87,45.45c-5.82,0-10.76-2.08-14.69-6.2-3.95-4.14-5.96-9.61-5.96-16.28s1.95-12.21,5.96-16.53C232.15,2.17,237.09,0,242.87,0c2.26,0,4.3.42,6.23,1.29,1.98.9,3.34,1.35,4.04,1.35,1.24,0,2.1-.56,2.5-1.64h.44v11.94h0c-.43-3.55-1.85-6.54-4.22-8.91-2.38-2.45-5.47-3.69-9.18-3.69-8.58,0-12.93,7.36-12.93,21.87s4.67,22.88,13.87,22.88c3.94,0,7.28-1.41,9.94-4.2,2.55-2.74,3.88-6.62,3.93-11.55h.23c-.12,9.94-5.79,16.1-14.85,16.1"/>
      <path class="cls-1" d="M32.58,44.44v-.35c3.23,0,5.86-2.62,5.86-5.86V3.25h-.04l-15.56,41.2h-.68L6.72,3.25h0v34.99c0,3.24,2.62,5.86,5.86,5.86v.35H0v-.35h5.86V1.36H0v-.35h13.14l12.7,33.61L38.6,1.01h12.35v.35h-5.86v42.73h5.86v.35h-18.37Z"/>
      <path class="cls-1" d="M133.04,44.7L104.23,6.52h-.07v31.46c0,3.23,2.62,5.86,5.86,5.86v.35h-12.57v-.35h5.86V1.11h-5.86v-.35h10.8l23.94,31.75h.03V6.97c0-3.24-2.62-5.86-5.86-5.86v-.35h12.57v.35h-5.86v43.59h-.04Z"/>
      <path class="cls-1" d="M74.23,45.45c-5.89,0-11-2.13-15.2-6.33-4.16-4.22-6.27-9.74-6.27-16.4s2.11-12.18,6.27-16.4c4.2-4.2,9.31-6.33,15.2-6.33s11,2.13,15.14,6.33c4.16,4.16,6.27,9.68,6.27,16.4s-2.11,12.24-6.27,16.46c-4.16,4.16-9.25,6.27-15.14,6.27M74.23.35c-9.25,0-13.93,7.55-13.93,22.44s4.69,22.31,13.93,22.31,13.87-7.53,13.87-22.37S83.43.35,74.23.35"/>
      <path class="cls-1" d="M219.49,44.6l-15.59-19.74c4.9-.29,11.94-1.89,11.94-11.9,0-7.55-4.69-11.7-13.21-11.7-.28,0-.84.02-1.69.04-.89.02-2.08.06-3.59.09l-2.64.06c-1.52.04-2.66.06-3.41.06h-10.07v.35h5.86v42.73h-5.86v.35h18.36v-.35c-3.23,0-5.86-2.62-5.86-5.86v-13.88l1.72.03,12.11,15.46c1.35,1.72.12,4.24-2.07,4.24v.35h18.37v-.35h-4.38ZM193.74,24.52V4.95c0-1.79,1.43-3.25,3.21-3.28,1.51-.03,3.24-.06,4.42-.06,3.93,0,7.57,1.47,7.57,12.17,0,4.92-.79,6.61-2.41,8.49-1.67,1.88-3.77,2.24-6.39,2.31-.32.03-.74.05-1.27.05s-1.13-.01-1.86-.05c-1.38-.06-2.38-.06-2.95-.06h-.33Z"/>
      <path class="cls-1" d="M264.92,38.94l1.72-4.96h-.7l-3.67,10.62h-3.56v.35h10.24v-.35c-2.93,0-4.99-2.89-4.03-5.66"/>
      <path class="cls-1" d="M295.18,44.6L277.51.5l-9.37,27.1h.7l6.18-17.84,11.11,30.1c.85,2.3-.85,4.73-3.3,4.73v.35h17.17v-.35h-4.82Z"/>
      <path class="cls-1" d="M274.17,29h-10.23c-1.06,0-2.11-.17-3.11-.51,0,2.42,1.96,4.39,4.39,4.39h10.55c.93,0,1.86.15,2.74.45,0-2.39-1.94-4.33-4.33-4.33"/>
      <path class="cls-1" d="M144.33,38.94l1.72-4.96h-.7l-3.67,10.62h-3.56v.35h10.24v-.35c-2.93,0-4.99-2.89-4.03-5.66"/>
      <path class="cls-1" d="M174.6,44.6L156.92.5l-9.37,27.1h.7l6.18-17.84,11.11,30.1c.85,2.3-.85,4.73-3.3,4.73v.35h17.17v-.35h-4.82Z"/>
      <path class="cls-1" d="M153.58,29h-10.23c-1.06,0-2.11-.17-3.11-.51,0,2.42,1.96,4.39,4.39,4.39h10.55c.93,0,1.86.15,2.74.45,0-2.39-1.94-4.33-4.33-4.33"/>
      <path class="cls-1" d="M67,24.52c-.66-.55-1.31-1.11-1.96-1.68-.68-.58-1.19-1.38-1.44-2.27-.24-.89-.24-1.86.06-2.77.28-.91.85-1.72,1.6-2.33,1.49-1.25,3.76-1.47,5.51-.54.44.23.84.52,1.19.87l.92.9,1.83,1.81h-1.01l1.8-1.78.9-.89c.34-.33.73-.64,1.16-.87,1.71-.94,3.93-.78,5.44.39.76.57,1.35,1.35,1.67,2.23.31.88.39,1.83.18,2.72-.21.89-.66,1.7-1.3,2.31-.64.58-1.28,1.11-1.93,1.66l1.64-1.93c.5-.64.82-1.39.9-2.17.2-1.56-.56-3.12-1.8-3.92-1.24-.81-2.9-.87-4.14-.12-.31.19-.59.4-.85.67l-.89.9-1.78,1.8c-.28.28-.73.28-1.01,0h0s-1.8-1.83-1.8-1.83l-.9-.91c-.26-.26-.55-.47-.86-.66-1.26-.74-2.96-.64-4.18.23-1.24.86-1.93,2.48-1.65,4.05.12.78.49,1.53,1.04,2.15.57.65,1.12,1.3,1.68,1.96"/>
      <path class="cls-1" d="M75.37,20.03c1.29,1.03,2.53,2.1,3.76,3.19.62.55,1.21,1.07,1.84,1.67.67.68,1.08,1.66,1.03,2.65-.03.98-.47,1.96-1.2,2.64-.73.68-1.76,1.03-2.76.98-.5-.03-1-.15-1.45-.37-.23-.11-.44-.25-.64-.4-.2-.15-.39-.35-.52-.48l-1.72-1.75h.97l-1.13,1.07-.56.54-.29.28c-.11.11-.23.2-.36.29-1.02.72-2.38.86-3.49.38-1.11-.47-1.91-1.52-2.06-2.65-.18-1.13.3-2.28,1.12-2.92-.66.82-.84,1.9-.56,2.8.28.9.99,1.62,1.84,1.86.84.27,1.78.08,2.42-.45.16-.13.3-.28.49-.48l.54-.56,1.07-1.13c.26-.27.68-.28.95-.02h0s.02.02.02.02l1.75,1.72c.16.16.25.25.39.35.13.1.26.18.4.25.28.14.59.23.91.25,1.28.11,2.54-.94,2.63-2.27.06-.65-.13-1.34-.57-1.87l-1.63-1.81c-1.09-1.23-2.16-2.47-3.19-3.76"/>
      <path class="cls-1" d="M71.69,66.86c0-1.16.41-2.02,1.22-2.6.81-.57,1.76-.86,2.85-.86,2.39,0,3.82.9,4.26,2.68h-1.37c-.24-1.06-1.21-1.6-2.9-1.6-1.19,0-2.02.35-2.49,1.06-.18.26-.27.59-.27,1,0,.75.41,1.34,1.23,1.75.39.21,1.21.47,2.46.8,1.25.33,2.16.69,2.73,1.09.79.55,1.18,1.33,1.18,2.34,0,1.24-.49,2.17-1.47,2.81-.82.54-1.84.8-3.04.8-2.73,0-4.31-1.04-4.74-3.12h1.5c.23,1.3,1.31,1.96,3.24,1.96,1.38,0,2.34-.38,2.89-1.15.21-.3.32-.7.32-1.22s-.2-.93-.59-1.25c-.57-.46-1.65-.89-3.25-1.27-2.51-.58-3.77-1.66-3.76-3.23"/>
      <polygon class="cls-1" points="91.48 75.91 91.49 63.6 98.8 63.6 98.8 64.78 92.75 64.78 92.75 69.16 98.62 69.16 98.62 70.36 92.75 70.35 92.75 74.74 98.8 74.74 98.8 75.92 91.48 75.91"/>
      <polygon class="cls-1" points="120 67.16 116.3 76.65 112.6 67.16 110.69 75.92 109.39 75.92 112.27 62.79 116.31 73.33 120.35 62.8 123.2 75.93 121.92 75.93 120 67.16"/>
      <rect class="cls-1" x="133.8" y="63.62" width="1.27" height="12.31"/>
      <path class="cls-1" d="M149.76,75.5c-.65.44-1.46.64-2.45.61-.4-.01-.77-.06-1.09-.15-.32-.09-.54-.18-.66-.28v-1.39c.34.29.83.47,1.49.54.7.08,1.3-.01,1.79-.29.59-.33.88-.88.88-1.65v-9.27s1.27,0,1.27,0v9.27c0,1.18-.42,2.05-1.24,2.61"/>
      <path class="cls-1" d="M174.11,72.22c-.33.77-.78,1.45-1.36,2.02-.58.57-1.25,1.03-2.02,1.36-.77.33-1.59.5-2.46.5s-1.69-.17-2.45-.5c-.77-.33-1.44-.79-2.01-1.36-.57-.57-1.02-1.25-1.36-2.02-.33-.77-.5-1.59-.5-2.46,0-.87.17-1.69.5-2.46.33-.77.78-1.44,1.36-2.01.57-.57,1.24-1.02,2.01-1.35s1.59-.5,2.45-.5c.87,0,1.69.17,2.46.5.77.33,1.45.78,2.02,1.35.57.57,1.03,1.24,1.36,2.01.33.77.5,1.59.5,2.46,0,.87-.17,1.69-.5,2.46M171.86,66.19c-.99-.99-2.19-1.48-3.59-1.49-1.39,0-2.58.49-3.57,1.48-.99.99-1.49,2.18-1.49,3.57,0,1.4.49,2.6,1.48,3.59.99.99,2.18,1.49,3.57,1.49,1.4,0,2.6-.49,3.59-1.48.99-.99,1.48-2.18,1.48-3.59,0-1.39-.49-2.58-1.48-3.57"/>
      <polygon class="cls-1" points="189.06 75.96 187.79 75.95 187.79 70.16 183.12 63.64 184.75 63.64 188.43 68.91 192.1 63.64 193.72 63.64 189.06 70.16 189.06 75.96"/>
      <path class="cls-1" d="M209.9,75.96l-1.32-3.35h-5.41s-1.33,3.35-1.33,3.35h-1.38s5.42-13.16,5.42-13.16l5.39,13.17h-1.38ZM208.12,71.43l-2.23-5.67-2.25,5.67h4.48Z"/>
      <path class="cls-1" d="M220.98,66.93c0-1.16.41-2.02,1.22-2.6.81-.57,1.76-.86,2.85-.86,2.39,0,3.82.9,4.27,2.68h-1.37c-.24-1.06-1.21-1.6-2.89-1.6-1.19,0-2.02.35-2.49,1.06-.18.26-.27.59-.27.99,0,.75.41,1.34,1.23,1.75.39.21,1.21.47,2.46.8,1.25.33,2.16.69,2.73,1.09.79.55,1.18,1.33,1.18,2.34,0,1.24-.49,2.17-1.47,2.81-.82.54-1.84.8-3.04.8-2.73,0-4.31-1.04-4.74-3.12h1.5c.23,1.3,1.31,1.96,3.24,1.96,1.38,0,2.34-.38,2.89-1.15.21-.3.32-.7.32-1.21s-.2-.93-.59-1.25c-.57-.46-1.65-.89-3.25-1.27-2.51-.58-3.77-1.66-3.77-3.23"/>
    </g>
  </g>
</svg>