<svg xmlns="http://www.w3.org/2000/svg" width="20" height="20" viewBox="0 0 20 20" fill="none"><path d="M19.8781 19.2891L14.504 13.9147C15.8432 12.4355 16.6673 10.4813 16.6673 8.33368C16.6665 3.73849 12.9282 0 8.33325 0C3.73829 0 0 3.73849 0 8.33368C0 12.9289 3.73829 16.6674 8.33325 16.6674C10.4807 16.6674 12.4349 15.8432 13.914 14.5039L19.2881 19.8783C19.3698 19.96 19.4765 20 19.5831 20C19.6898 20 19.7965 19.9592 19.8781 19.8783C20.0406 19.7158 20.0406 19.4516 19.8781 19.2891ZM0.833325 8.33368C0.833325 4.19767 4.19829 0.833368 8.33325 0.833368C12.4682 0.833368 15.8332 4.19767 15.8332 8.33368C15.8332 12.4697 12.469 15.834 8.33325 15.834C4.19746 15.834 0.833325 12.4697 0.833325 8.33368Z" fill="black"></path></svg>