<svg xmlns:xlink="http://www.w3.org/1999/xlink" class="brxe-svg section-hero__cards-icon" id="brxe-zwlhpy" xmlns="http://www.w3.org/2000/svg" width="65" height="61" viewBox="0 0 65 61" fill="none"><path d="M64.5283 19.6022C64.5283 23.5973 63.1759 27.9608 60.5114 32.5726C60.2587 33.0065 59.8097 33.2466 59.3499 33.2466C59.116 33.2466 58.8821 33.1866 58.6697 33.0583C58.0298 32.6763 57.8147 31.8412 58.1884 31.1918C60.6082 27.0029 61.8369 23.1061 61.8369 19.6022C61.8369 11.0335 54.7899 3.22889 47.0492 3.22889C40.72 3.22889 37.4802 5.75856 34.4581 8.57477L22.921 20.1671C21.3374 21.7744 21.0416 24.2631 22.2408 25.9523C23.0016 27.0248 24.1201 27.6715 25.3919 27.7752C26.6448 27.8707 27.8762 27.4205 28.7635 26.5199L40.7281 14.5401C41.2551 14.0107 42.1101 14.0162 42.629 14.5538C43.1506 15.0886 43.1452 15.9537 42.6183 16.4831L38.7573 20.3499L53.053 33.0856C55.6449 35.3915 56.2956 39.2447 54.5667 42.05C53.502 43.7801 51.7598 44.9426 49.7943 45.2346C49.1625 45.3301 48.5253 45.3356 47.9015 45.2455C48.251 46.9265 48.001 48.7003 47.0895 50.1821C46.0221 51.9149 44.2799 53.0747 42.3144 53.3667C41.3815 53.5059 40.4485 53.4458 39.5666 53.2002C39.6741 54.6029 39.3757 56.0219 38.6202 57.2417C37.5555 58.9718 35.8132 60.1343 33.8478 60.4263C33.5171 60.4754 33.1891 60.5 32.861 60.5C31.229 60.5 29.6427 59.9024 28.4005 58.7944L19.6865 50.8589C6.43939 38.7071 0 28.4847 0 19.6022C0 9.42618 8.16821 0.5 17.4764 0.5C20.5953 0.5 23.7115 1.52606 26.4942 3.46903C27.1073 3.89746 27.2605 4.74615 26.8411 5.3656C26.4216 5.99052 25.5855 6.14606 24.9725 5.71763C22.6414 4.08848 20.0495 3.22889 17.4791 3.22889C9.74108 3.22889 2.69137 11.0335 2.69137 19.6022C2.69137 27.5569 9.01514 37.3918 21.4879 48.8313L30.1858 56.7532C31.0758 57.5474 32.2695 57.8994 33.4606 57.7275C34.6624 57.5501 35.6895 56.8624 36.3456 55.7954C37.3834 54.1144 36.9505 51.7621 35.3373 50.3267L26.3679 41.6734C25.8301 41.1549 25.8086 40.2926 26.3195 39.7468C26.8276 39.1983 27.6799 39.1765 28.2177 39.6923L38.6793 49.7154C39.5424 50.485 40.7389 50.8507 41.9273 50.6678C43.1291 50.4905 44.1562 49.8028 44.8149 48.7358C45.85 47.0575 45.4172 44.7052 43.804 43.2698L33.8155 34.0926C33.267 33.5877 33.2213 32.7281 33.716 32.1687C34.2081 31.6066 35.055 31.5602 35.6116 32.0596L46.127 41.5588C47.0223 42.3529 48.2107 42.7104 49.4072 42.5357C50.609 42.3556 51.6334 41.6707 52.2921 40.6037C53.3273 38.9227 52.8944 36.5704 51.2812 35.1377L36.8403 22.271L30.6617 28.4574C29.2206 29.9201 27.2202 30.6542 25.1795 30.4986C23.1388 30.3294 21.2728 29.257 20.0629 27.5487C18.1029 24.7871 18.5169 20.7838 21.0282 18.235L32.6056 6.60452C35.9342 3.49905 39.7602 0.502729 47.0519 0.502729C56.3628 0.502729 64.5283 9.42891 64.5283 19.6049V19.6022Z" fill="black"></path></svg>