<svg xmlns:xlink="http://www.w3.org/1999/xlink" class="brxe-svg section-hero__cards-icon" id="brxe-lhgncw" xmlns="http://www.w3.org/2000/svg" width="60" height="61" viewBox="0 0 60 61" fill="none"><g clip-path="url(#clip0_224_2608)" fill="none"><path d="M-0.000107421 24.2499C-0.000107421 23.5599 0.559893 22.9999 1.24989 22.9999H7.56239C7.82239 19.6549 9.14989 16.4174 11.4574 13.7249L6.61489 8.88239C6.12739 8.39489 6.12739 7.60239 6.61489 7.11489C7.10239 6.62739 7.89489 6.62739 8.38239 7.11489L13.2249 11.9574C15.9149 9.64989 19.1549 8.32239 22.4999 8.06239V1.74989C22.4999 1.05989 23.0599 0.499893 23.7499 0.499893C24.4399 0.499893 24.9999 1.05989 24.9999 1.74989V8.08239C28.1824 8.32739 31.3174 9.46239 33.9724 11.6174C34.1724 11.7749 34.4999 11.7324 34.7099 11.5224L39.1174 7.11489C39.6049 6.62739 40.3974 6.62739 40.8849 7.11489C41.3724 7.60239 41.3724 8.39489 40.8849 8.88239L36.4774 13.2899C35.3474 14.4149 33.5974 14.5324 32.3974 13.5574C26.9174 9.11489 19.0199 9.53239 14.0274 14.5274C9.03239 19.5224 8.61739 27.4199 13.0574 32.8999C14.0324 34.0974 13.9174 35.8524 12.7899 36.9774L8.38239 41.3849C8.13739 41.6299 7.81739 41.7499 7.49739 41.7499C7.17739 41.7499 6.85739 41.6274 6.61239 41.3849C6.12489 40.8974 6.12489 40.1049 6.61239 39.6174L11.0199 35.2099C11.2299 34.9999 11.2724 34.6699 11.1149 34.4749C8.96239 31.8199 7.82739 28.6824 7.58239 25.4999H1.24989C0.559893 25.4999 -0.000107421 24.9399 -0.000107421 24.2499ZM59.8849 0.614893C59.3974 0.127393 58.6049 0.127393 58.1174 0.614893L0.114893 58.6149C-0.372607 59.1024 -0.372607 59.8949 0.114893 60.3824C0.359893 60.6274 0.679893 60.7474 0.999893 60.7474C1.31989 60.7474 1.63989 60.6249 1.88489 60.3824L59.8849 2.38239C60.3724 1.89489 60.3724 1.10239 59.8849 0.614893ZM58.4849 53.3849C53.8274 51.0299 50.9324 46.3324 50.9324 41.1249C50.9324 35.9174 53.8249 31.2199 58.4824 28.8649C59.4149 28.3949 59.9924 27.4399 59.9974 26.3774C59.9999 25.3199 59.4299 24.3649 58.5049 23.8899C54.6524 21.9049 50.3224 21.2799 45.9749 22.0999C45.2974 22.2274 44.8499 22.8799 44.9774 23.5574C45.1049 24.2374 45.7624 24.6874 46.4349 24.5549C50.2274 23.8449 54.0024 24.3824 57.3599 26.1124C57.4774 26.1749 57.4974 26.2999 57.4974 26.3699C57.4974 26.4424 57.4774 26.5724 57.3524 26.6349C51.8499 29.4199 48.4324 34.9699 48.4324 41.1249C48.4324 47.2799 51.8524 52.8349 57.3549 55.6174C57.4799 55.6799 57.4999 55.8099 57.4999 55.8799C57.4999 55.9499 57.4824 56.0749 57.3649 56.1374C54.9674 57.3724 52.3824 57.9999 49.6824 57.9999C40.3724 57.9999 32.6649 50.6999 32.4999 41.7274C32.4849 40.8899 32.5324 40.0399 32.6374 39.1974C32.7249 38.5149 32.2399 37.8899 31.5549 37.7999C30.8824 37.7149 30.2449 38.1974 30.1574 38.8849C30.0374 39.8449 29.9824 40.8124 29.9999 41.7699C30.1899 52.0974 39.0174 60.4974 49.6824 60.4974C52.7874 60.4974 55.7574 59.7774 58.5124 58.3574C59.4349 57.8824 60.0049 56.9274 59.9999 55.8699C59.9949 54.8049 59.4149 53.8549 58.4849 53.3849Z" fill="black"></path></g><defs><clipPath id="clip0_224_2608"><rect width="60" height="60" fill="white" transform="translate(0 0.5)"></rect></clipPath></defs></svg>