<svg viewBox="0 0 178 46" xmlns:xlink="http://www.w3.org/1999/xlink" class="brxe-svg logo brf-reset-transition" id="brxe-hkwlmm" xmlns="http://www.w3.org/2000/svg" width="178" height="46" style="filter: invert(100%);"><path d="M143.621 27.194c-3.423 0-6.328-1.224-8.64-3.647-2.323-2.435-3.505-5.652-3.505-9.575 0-3.923 1.147-7.181 3.505-9.722 2.335-2.511 5.241-3.788 8.64-3.788 1.329 0 2.529.247 3.664.76 1.165.528 1.964.793 2.376.793.729 0 1.235-.33 1.471-.964h.258v7.022c-.253-2.088-1.088-3.846-2.482-5.24-1.399-1.441-3.217-2.17-5.399-2.17-5.046 0-7.604 4.328-7.604 12.862 0 8.534 2.746 13.457 8.157 13.457 2.317 0 4.282-.83 5.846-2.47 1.5-1.612 2.282-3.894 2.312-6.794h.135c-.071 5.847-3.405 9.47-8.734 9.47M19.94 26.6v-.206c1.9 0 3.447-1.541 3.447-3.447V2.374h-.024l-9.151 24.231h-.4L4.732 2.374v20.579A3.444 3.444 0 0 0 8.177 26.4v.205h-7.4V26.4h3.447V1.262H.78v-.206h7.728l7.47 19.768L23.48 1.056h7.264v.206h-3.447v25.132h3.447v.205H19.94ZM79.025 26.752 62.081 4.297h-.041V22.8c0 1.9 1.54 3.447 3.447 3.447v.206h-7.393v-.206h3.446V1.115h-3.447V.91h6.352l14.08 18.674h.018V4.562a3.444 3.444 0 0 0-3.446-3.447V.91h7.393v.206h-3.447v25.637h-.023.005ZM44.437 27.194c-3.465 0-6.47-1.253-8.94-3.723-2.447-2.482-3.688-5.729-3.688-9.646 0-3.917 1.241-7.164 3.688-9.646 2.47-2.47 5.475-3.722 8.94-3.722 3.464 0 6.47 1.252 8.904 3.722 2.447 2.447 3.688 5.694 3.688 9.646 0 3.952-1.241 7.199-3.688 9.68-2.447 2.448-5.44 3.689-8.904 3.689Zm0-26.526c-5.44 0-8.193 4.44-8.193 13.198s2.758 13.122 8.193 13.122c5.434 0 8.157-4.43 8.157-13.157 0-8.728-2.747-13.163-8.157-13.163ZM129.871 26.694l-9.17-11.61c2.882-.17 7.023-1.112 7.023-7 0-4.44-2.759-6.88-7.77-6.88-.164 0-.494.011-.994.023-.523.012-1.223.035-2.111.053l-1.553.035c-.894.024-1.564.036-2.005.036h-5.923v.206h3.447v25.13h-3.447v.207h10.798v-.206a3.448 3.448 0 0 1-3.446-3.447v-8.163l1.012.018 7.122 9.092c.794 1.012.071 2.494-1.217 2.494v.206h10.804v-.206h-2.576l.006.012Zm-15.145-11.81V3.374c0-1.053.841-1.912 1.888-1.93.888-.017 1.905-.035 2.599-.035 2.312 0 4.453.865 4.453 7.158 0 2.894-.465 3.888-1.418 4.993-.982 1.106-2.217 1.318-3.758 1.36a8.17 8.17 0 0 1-.747.028c-.312 0-.665-.005-1.094-.029-.812-.035-1.4-.035-1.735-.035h-.194.006ZM156.59 23.365l1.011-2.917h-.411l-2.159 6.246h-2.094v.205h6.023v-.205a2.508 2.508 0 0 1-2.37-3.33ZM174.387 26.694 163.994.757l-5.511 15.938h.412l3.635-10.492 6.534 17.703c.5 1.353-.5 2.782-1.941 2.782v.206h10.098v-.206h-2.834v.006Z"></path><path d="M162.03 17.518h-6.017c-.623 0-1.241-.1-1.829-.3a2.582 2.582 0 0 0 2.582 2.582h6.205c.547 0 1.094.089 1.611.265a2.548 2.548 0 0 0-2.546-2.547M85.666 23.365l1.011-2.917h-.412l-2.158 6.246h-2.094v.205h6.023v-.205a2.508 2.508 0 0 1-2.37-3.33ZM103.468 26.694 93.07.757l-5.51 15.938h.41l3.636-10.492 6.534 17.703c.5 1.353-.5 2.782-1.941 2.782v.206h10.098v-.206h-2.835l.006.006Z"></path><path d="M91.106 17.518h-6.017c-.623 0-1.24-.1-1.829-.3a2.582 2.582 0 0 0 2.582 2.582h6.205c.547 0 1.094.089 1.611.265a2.548 2.548 0 0 0-2.546-2.547M40.184 14.884a60.04 60.04 0 0 1-1.152-.989c-.4-.34-.7-.811-.847-1.335a2.872 2.872 0 0 1 .976-3c.876-.734 2.211-.864 3.24-.317.26.136.495.306.7.512l.541.53 1.077 1.064h-.594l1.059-1.047.529-.523c.2-.195.43-.377.682-.512 1.006-.553 2.311-.459 3.2.23.447.334.794.793.982 1.31.182.518.23 1.077.106 1.6-.124.524-.389 1-.765 1.36-.376.34-.753.652-1.135.975l.965-1.135a2.5 2.5 0 0 0 .529-1.276 2.423 2.423 0 0 0-1.059-2.306c-.73-.476-1.706-.511-2.435-.07a2.459 2.459 0 0 0-.5.394l-.523.53-1.047 1.058a.419.419 0 0 1-.594 0l-1.059-1.076-.529-.536a2.695 2.695 0 0 0-.506-.388c-.74-.435-1.74-.376-2.458.136-.73.505-1.135 1.458-.97 2.382.07.458.288.9.611 1.264.335.382.659.765.988 1.153"></path><path d="M45.107 12.243a56.355 56.355 0 0 1 2.211 1.876c.365.324.712.63 1.083.982.394.4.635.977.605 1.559a2.25 2.25 0 0 1-.705 1.553 2.246 2.246 0 0 1-2.477.358 2.25 2.25 0 0 1-.376-.235c-.117-.088-.23-.206-.306-.282l-1.011-1.03h.57l-.664.63-.33.317-.17.165a2.142 2.142 0 0 1-2.264.394c-.654-.276-1.124-.894-1.212-1.558-.106-.665.176-1.341.658-1.718a1.807 1.807 0 0 0-.329 1.647c.165.53.582.953 1.082 1.094a1.534 1.534 0 0 0 1.424-.265c.094-.076.176-.164.288-.282l.317-.33.63-.664a.392.392 0 0 1 .558-.012l.012.012 1.03 1.012c.093.094.146.147.229.206a1.425 1.425 0 0 0 .77.293c.753.065 1.494-.552 1.547-1.334a1.516 1.516 0 0 0-.335-1.1l-.959-1.065a56.355 56.355 0 0 1-1.876-2.211M42.943 39.785c0-.682.24-1.188.717-1.529.477-.335 1.035-.505 1.676-.505 1.406 0 2.247.529 2.506 1.576h-.806c-.141-.624-.712-.941-1.706-.941-.7 0-1.188.206-1.464.623-.106.153-.159.347-.159.588 0 .441.241.788.724 1.03.229.123.711.276 1.447.47.735.194 1.27.406 1.605.641.465.324.694.782.694 1.376 0 .73-.288 1.277-.864 1.653-.483.318-1.083.47-1.788.47-1.606 0-2.535-.611-2.788-1.834h.882c.135.764.77 1.152 1.906 1.152.811 0 1.376-.223 1.7-.676.123-.176.188-.412.188-.718a.903.903 0 0 0-.347-.735c-.336-.27-.97-.523-1.912-.747-1.476-.34-2.217-.976-2.211-1.9M54.583 45.108l.005-7.24h4.3v.694H55.33v2.577h3.452v.705l-3.452-.006v2.582h3.558v.694l-4.305-.006ZM71.356 39.962l-2.176 5.581-2.177-5.581-1.123 5.152h-.764l1.693-7.722 2.376 6.199 2.376-6.193 1.677 7.722h-.753l-1.13-5.158ZM80.22 37.88h-.748v7.24h.747v-7.24ZM88.859 44.867c-.382.259-.859.376-1.441.359a2.64 2.64 0 0 1-.641-.088c-.188-.053-.318-.106-.388-.165v-.818c.2.17.488.277.876.318.412.047.765-.006 1.053-.17.347-.195.517-.518.517-.971V37.88h.747v5.452c0 .694-.247 1.206-.729 1.535M103.18 42.938a3.677 3.677 0 0 1-.799 1.188 3.857 3.857 0 0 1-1.189.8 3.632 3.632 0 0 1-1.446.294c-.512 0-.994-.1-1.441-.294a3.75 3.75 0 0 1-1.183-.8 3.878 3.878 0 0 1-.8-1.188 3.636 3.636 0 0 1-.293-1.447c0-.511.1-.994.294-1.447a3.734 3.734 0 0 1 3.423-2.27 3.771 3.771 0 0 1 2.635 1.088c.335.336.605.73.799 1.182.194.453.294.936.294 1.447 0 .512-.1.994-.294 1.447Zm-1.323-3.546a2.905 2.905 0 0 0-2.111-.877 2.86 2.86 0 0 0-2.1.87 2.865 2.865 0 0 0-.876 2.1c0 .824.288 1.53.87 2.112a2.866 2.866 0 0 0 2.1.876c.823 0 1.529-.288 2.111-.87a2.87 2.87 0 0 0 .871-2.112c0-.817-.289-1.517-.871-2.1M111.973 45.138l-.747-.006v-3.405l-2.747-3.835h.959l2.165 3.1 2.158-3.1h.953l-2.741 3.834v3.412ZM124.23 45.138l-.777-1.97h-3.181l-.783 1.97h-.811l3.187-7.74 3.171 7.745h-.812l.006-.005Zm-1.047-2.665-1.312-3.334-1.323 3.334h2.635ZM130.747 39.827c0-.682.241-1.188.717-1.53.477-.335 1.035-.505 1.677-.505 1.405 0 2.246.53 2.511 1.576h-.806c-.141-.623-.711-.941-1.7-.941-.699 0-1.188.206-1.464.623a.999.999 0 0 0-.159.583c0 .44.241.788.724 1.029.229.123.711.276 1.446.47.736.195 1.271.406 1.606.642.465.323.694.782.694 1.376 0 .729-.288 1.276-.865 1.652-.482.318-1.082.47-1.787.47-1.606 0-2.535-.61-2.788-1.834h.882c.135.764.77 1.153 1.906 1.153.811 0 1.376-.224 1.699-.677.124-.176.188-.411.188-.711a.91.91 0 0 0-.347-.736c-.335-.27-.97-.523-1.911-.746-1.476-.342-2.217-.977-2.217-1.9"></path></svg>