<svg xmlns:xlink="http://www.w3.org/1999/xlink" class="brxe-svg section-hero__cards-icon" id="brxe-egblug" xmlns="http://www.w3.org/2000/svg" width="60" height="61" viewBox="0 0 60 61" fill="none"><path d="M29.9987 60.5C26.1511 60.5 22.5234 58.8099 20.0433 55.8646C19.8058 55.5821 19.4958 55.4546 19.1033 55.4771C15.2831 55.7921 11.5055 54.4345 8.78537 51.7143C6.06525 48.994 4.6927 45.2337 5.02271 41.3959C5.05521 41.0284 4.9152 40.6934 4.63519 40.4583C1.68757 37.9756 0 34.3453 0 30.5C0 26.6547 1.69007 23.0244 4.63519 20.5442C4.9177 20.3067 5.05771 19.9716 5.02521 19.6041C4.6952 15.7663 6.06775 12.006 8.78787 9.28573C11.5055 6.56801 15.2481 5.18539 19.1058 5.52292C19.4683 5.55792 19.8083 5.41791 20.0458 5.13539C22.5259 2.18764 26.1536 0.5 30.0013 0.5C33.8489 0.5 37.4766 2.19014 39.9567 5.13539C40.1967 5.41791 40.5067 5.55042 40.8967 5.52292C44.6994 5.19789 48.4945 6.56551 51.2146 9.28573C53.9347 12.006 55.3073 15.7663 54.9773 19.6041C54.9448 19.9716 55.0848 20.3067 55.3648 20.5417C58.3124 23.0244 60 26.6547 60 30.5C60 34.3453 58.3099 37.9756 55.3648 40.4558C55.0823 40.6933 54.9423 41.0284 54.9748 41.3959C55.3048 45.2337 53.9323 48.994 51.2121 51.7143C48.4945 54.432 44.7569 55.8221 40.8942 55.4771C40.5342 55.4496 40.1917 55.5846 39.9542 55.8646C37.4741 58.8124 33.8464 60.5 29.9987 60.5ZM19.2133 52.9694C20.2758 52.9694 21.2609 53.4269 21.9584 54.2545C23.961 56.6347 26.8936 57.9998 30.0013 57.9998C33.1089 57.9998 36.0415 56.6347 38.0441 54.2545C38.8091 53.3444 39.9367 52.8794 41.1142 52.9844C44.2168 53.2469 47.252 52.1418 49.4496 49.9441C51.6472 47.7464 52.7547 44.7087 52.4897 41.6059C52.3897 40.4208 52.8522 39.3057 53.7622 38.5407C56.1398 36.5355 57.5049 33.6028 57.5049 30.4975C57.5049 27.3922 56.1398 24.457 53.7597 22.4518C52.8522 21.6893 52.3897 20.5717 52.4897 19.3866C52.7547 16.2838 51.6472 13.2461 49.4496 11.0484C47.2495 8.8507 44.1918 7.7431 41.1142 8.00813C39.9142 8.11813 38.8116 7.6481 38.0441 6.73802C36.0415 4.35782 33.1089 2.99271 30.0013 2.99271C26.8936 2.99271 23.961 4.35782 21.9584 6.73802C21.1909 7.6481 20.0533 8.11563 18.8883 8.00813C15.7807 7.7406 12.7505 8.8507 10.5529 11.0484C8.35535 13.2461 7.2478 16.2838 7.51281 19.3866C7.61282 20.5717 7.1503 21.6868 6.24026 22.4518C3.86266 24.457 2.4976 27.3897 2.4976 30.495C2.4976 33.6003 3.86266 36.5355 6.24276 38.5407C7.1503 39.3032 7.61282 40.4208 7.51281 41.6059C7.2478 44.7087 8.35535 47.7464 10.5529 49.9441C12.7505 52.1418 15.8007 53.2419 18.8883 52.9844C18.9983 52.9744 19.1058 52.9694 19.2133 52.9694ZM31.1338 36.183L42.9818 24.762C43.4793 24.2845 43.4943 23.4919 43.0168 22.9944C42.5368 22.5018 41.7467 22.4818 41.2492 22.9619L29.3837 34.3978C27.9212 35.8579 25.5411 35.8579 24.0485 34.3653L18.3533 29.0724C17.8482 28.6048 17.0557 28.6323 16.5857 29.1374C16.1157 29.6424 16.1432 30.435 16.6482 30.905L22.3134 36.1655C23.5335 37.3856 25.1385 37.9956 26.7386 37.9956C28.3387 37.9956 29.9262 37.3906 31.1363 36.1805L31.1338 36.183Z" fill="black"></path></svg>